<mxfile host="Electron" modified="2024-01-28T19:15:01.234Z" agent="Mozilla/5.0 (Windows NT 10.0; Win64; x64) AppleWebKit/537.36 (KHTML, like Gecko) draw.io/23.0.2 Chrome/120.0.6099.109 Electron/28.1.0 Safari/537.36" etag="5edkh7I5uM4IhvtJmBxs" version="23.0.2" type="device">
  <diagram name="Page-1" id="cyZGO4SQRIl0JEWkQYiH">
    <mxGraphModel dx="1562" dy="909" grid="1" gridSize="10" guides="1" tooltips="1" connect="1" arrows="1" fold="1" page="0" pageScale="1" pageWidth="850" pageHeight="1100" math="0" shadow="0">
      <root>
        <mxCell id="0" />
        <mxCell id="1" parent="0" />
        <mxCell id="p23H2IYLAellE1jLO7Vx-7" value="" style="edgeStyle=orthogonalEdgeStyle;rounded=0;orthogonalLoop=1;jettySize=auto;html=1;" parent="1" source="p23H2IYLAellE1jLO7Vx-5" target="p23H2IYLAellE1jLO7Vx-8" edge="1">
          <mxGeometry relative="1" as="geometry">
            <mxPoint x="260" y="240" as="targetPoint" />
          </mxGeometry>
        </mxCell>
        <mxCell id="p23H2IYLAellE1jLO7Vx-5" value="Wake up on beach" style="rounded=0;whiteSpace=wrap;html=1;" parent="1" vertex="1">
          <mxGeometry x="200" y="80" width="120" height="80" as="geometry" />
        </mxCell>
        <mxCell id="p23H2IYLAellE1jLO7Vx-13" style="edgeStyle=orthogonalEdgeStyle;rounded=0;orthogonalLoop=1;jettySize=auto;html=1;exitX=1;exitY=0.5;exitDx=0;exitDy=0;entryX=0.5;entryY=0;entryDx=0;entryDy=0;" parent="1" source="p23H2IYLAellE1jLO7Vx-8" target="p23H2IYLAellE1jLO7Vx-12" edge="1">
          <mxGeometry relative="1" as="geometry" />
        </mxCell>
        <mxCell id="p23H2IYLAellE1jLO7Vx-14" style="edgeStyle=orthogonalEdgeStyle;rounded=0;orthogonalLoop=1;jettySize=auto;html=1;exitX=0;exitY=0.5;exitDx=0;exitDy=0;entryX=0.5;entryY=0;entryDx=0;entryDy=0;" parent="1" source="p23H2IYLAellE1jLO7Vx-8" target="p23H2IYLAellE1jLO7Vx-10" edge="1">
          <mxGeometry relative="1" as="geometry" />
        </mxCell>
        <mxCell id="p23H2IYLAellE1jLO7Vx-16" style="edgeStyle=orthogonalEdgeStyle;rounded=0;orthogonalLoop=1;jettySize=auto;html=1;" parent="1" source="p23H2IYLAellE1jLO7Vx-8" target="p23H2IYLAellE1jLO7Vx-15" edge="1">
          <mxGeometry relative="1" as="geometry" />
        </mxCell>
        <mxCell id="p23H2IYLAellE1jLO7Vx-8" value="Explore?" style="rhombus;whiteSpace=wrap;html=1;" parent="1" vertex="1">
          <mxGeometry x="200" y="240" width="120" height="80" as="geometry" />
        </mxCell>
        <mxCell id="p23H2IYLAellE1jLO7Vx-18" value="" style="edgeStyle=orthogonalEdgeStyle;rounded=0;orthogonalLoop=1;jettySize=auto;html=1;" parent="1" source="p23H2IYLAellE1jLO7Vx-10" target="p23H2IYLAellE1jLO7Vx-17" edge="1">
          <mxGeometry relative="1" as="geometry" />
        </mxCell>
        <mxCell id="p23H2IYLAellE1jLO7Vx-10" value="To the left, towards a rocky outcrop" style="rounded=0;whiteSpace=wrap;html=1;" parent="1" vertex="1">
          <mxGeometry y="400" width="120" height="80" as="geometry" />
        </mxCell>
        <mxCell id="p23H2IYLAellE1jLO7Vx-22" value="" style="edgeStyle=orthogonalEdgeStyle;rounded=0;orthogonalLoop=1;jettySize=auto;html=1;" parent="1" source="p23H2IYLAellE1jLO7Vx-12" target="p23H2IYLAellE1jLO7Vx-21" edge="1">
          <mxGeometry relative="1" as="geometry" />
        </mxCell>
        <mxCell id="p23H2IYLAellE1jLO7Vx-12" value="To the right, towards a wide-open beach" style="rounded=0;whiteSpace=wrap;html=1;" parent="1" vertex="1">
          <mxGeometry x="400" y="400" width="120" height="80" as="geometry" />
        </mxCell>
        <mxCell id="p23H2IYLAellE1jLO7Vx-20" value="" style="edgeStyle=orthogonalEdgeStyle;rounded=0;orthogonalLoop=1;jettySize=auto;html=1;" parent="1" source="p23H2IYLAellE1jLO7Vx-15" target="p23H2IYLAellE1jLO7Vx-19" edge="1">
          <mxGeometry relative="1" as="geometry" />
        </mxCell>
        <mxCell id="p23H2IYLAellE1jLO7Vx-15" value="Forwards, into the forest" style="rounded=0;whiteSpace=wrap;html=1;" parent="1" vertex="1">
          <mxGeometry x="200" y="400" width="120" height="80" as="geometry" />
        </mxCell>
        <mxCell id="p23H2IYLAellE1jLO7Vx-17" value="Start Bandit story line" style="rounded=0;whiteSpace=wrap;html=1;" parent="1" vertex="1">
          <mxGeometry y="560" width="120" height="80" as="geometry" />
        </mxCell>
        <mxCell id="p23H2IYLAellE1jLO7Vx-19" value="Start Survivor story line" style="rounded=0;whiteSpace=wrap;html=1;" parent="1" vertex="1">
          <mxGeometry x="200" y="560" width="120" height="80" as="geometry" />
        </mxCell>
        <mxCell id="p23H2IYLAellE1jLO7Vx-21" value="Start Cultist story line" style="rounded=0;whiteSpace=wrap;html=1;" parent="1" vertex="1">
          <mxGeometry x="400" y="560" width="120" height="80" as="geometry" />
        </mxCell>
      </root>
    </mxGraphModel>
  </diagram>
</mxfile>
